<svg width="32" height="32" viewBox="0 0 32 32" fill="none" xmlns="http://www.w3.org/2000/svg">
<path d="M25.688 7.82V12.195C25.6876 12.357 25.6393 12.5153 25.5491 12.6499C25.4589 12.7845 25.3309 12.8894 25.1812 12.9514C25.0316 13.0134 24.8669 13.0298 24.7079 12.9984C24.549 12.967 24.4029 12.8893 24.288 12.775L23.068 11.554L14.743 19.878C14.6669 19.9542 14.5764 20.0146 14.4769 20.0559C14.3774 20.0971 14.2707 20.1183 14.163 20.1183C14.0553 20.1183 13.9486 20.0971 13.8491 20.0559C13.7496 20.0146 13.6592 19.9542 13.583 19.878L12.81 19.1C12.7338 19.0239 12.6734 18.9334 12.6321 18.8339C12.5909 18.7344 12.5697 18.6277 12.5697 18.52C12.5697 18.4123 12.5909 18.3056 12.6321 18.2061C12.6734 18.1066 12.7338 18.0162 12.81 17.94L21.134 9.616L19.913 8.4C19.7987 8.28513 19.721 8.13903 19.6896 7.98008C19.6582 7.82113 19.6746 7.65645 19.7366 7.50677C19.7986 7.35709 19.9035 7.2291 20.0381 7.13892C20.1727 7.04874 20.331 7.00041 20.493 7H24.867C24.9748 6.99987 25.0815 7.02098 25.1811 7.06213C25.2807 7.10328 25.3712 7.16366 25.4475 7.23982C25.5237 7.31598 25.5842 7.40642 25.6255 7.50597C25.6668 7.60552 25.688 7.71223 25.688 7.82ZM19.912 16.256L19.365 16.803C19.2889 16.8792 19.2285 16.9696 19.1873 17.0691C19.1461 17.1686 19.125 17.2753 19.125 17.383V22.313H8.188V11.375H17.211C17.3187 11.375 17.4254 11.3539 17.5249 11.3127C17.6244 11.2715 17.7148 11.2111 17.791 11.135L18.338 10.588C18.4527 10.4733 18.5309 10.3272 18.5626 10.1681C18.5942 10.009 18.578 9.84403 18.5159 9.69415C18.4538 9.54428 18.3487 9.41618 18.2137 9.32609C18.0788 9.23599 17.9202 9.18793 17.758 9.188H7.641C7.20595 9.188 6.78871 9.36075 6.48099 9.66828C6.17327 9.97582 6.00027 10.393 6 10.828V22.859C6 23.2942 6.17289 23.7116 6.48064 24.0194C6.78838 24.3271 7.20578 24.5 7.641 24.5H19.672C20.1072 24.5 20.5246 24.3271 20.8324 24.0194C21.1401 23.7116 21.313 23.2942 21.313 22.859V16.836C21.3133 16.6736 21.2653 16.5147 21.1751 16.3796C21.085 16.2445 20.9567 16.1391 20.8067 16.077C20.6566 16.0149 20.4914 15.9987 20.3321 16.0306C20.1729 16.0625 20.0266 16.1409 19.912 16.256Z" fill="black"/>
</svg>
